<mxfile host="Electron" modified="2023-09-05T14:29:01.923Z" agent="Mozilla/5.0 (Macintosh; Intel Mac OS X 10_15_7) AppleWebKit/537.36 (KHTML, like Gecko) draw.io/21.6.8 Chrome/114.0.5735.289 Electron/25.5.0 Safari/537.36" etag="-QdmsFvR-SJm8LQSM6eN" version="21.6.8" type="device" pages="4">
  <diagram name="PassportCheck" id="awEwMx6LPew-lmlHSubi">
    <mxGraphModel dx="1857" dy="1582" grid="1" gridSize="10" guides="1" tooltips="1" connect="1" arrows="1" fold="1" page="1" pageScale="1" pageWidth="827" pageHeight="1169" math="0" shadow="0">
      <root>
        <mxCell id="0" />
        <mxCell id="1" parent="0" />
        <mxCell id="fXtLzjUIHP5euoAiHCEg-1" value="" style="html=1;outlineConnect=0;whiteSpace=wrap;fillColor=#1ba1e2;shape=mxgraph.archimate3.application;appType=comp;archiType=square;fontColor=#ffffff;strokeColor=#006EAF;" parent="1" vertex="1">
          <mxGeometry x="90" y="120" width="350" height="220" as="geometry" />
        </mxCell>
        <mxCell id="fXtLzjUIHP5euoAiHCEg-5" value="Подсистема: ETL" style="html=1;outlineConnect=0;whiteSpace=wrap;fillColor=#76608a;shape=mxgraph.archimate3.application;appType=comp;archiType=square;strokeColor=#432D57;fontColor=#ffffff;" parent="1" vertex="1">
          <mxGeometry x="100" y="160" width="150" height="75" as="geometry" />
        </mxCell>
        <mxCell id="fXtLzjUIHP5euoAiHCEg-6" value="passportCheck-a-artemismq" style="html=1;outlineConnect=0;whiteSpace=wrap;fillColor=#647687;shape=mxgraph.archimate3.application;appType=interface;archiType=square;fontColor=#ffffff;strokeColor=#314354;" parent="1" vertex="1">
          <mxGeometry x="500" y="90" width="180" height="75" as="geometry" />
        </mxCell>
        <mxCell id="fXtLzjUIHP5euoAiHCEg-8" value="Сервис получения черных списков паспортов" style="html=1;outlineConnect=0;whiteSpace=wrap;fillColor=#1ba1e2;shape=mxgraph.archimate3.application;appType=event;archiType=rounded;strokeColor=#006EAF;fontColor=#ffffff;" parent="1" vertex="1">
          <mxGeometry x="770" y="194.5" width="150" height="75" as="geometry" />
        </mxCell>
        <mxCell id="tVJEj3gGwOZP97PrgEpv-1" value="Подсистема: РСУБД" style="html=1;outlineConnect=0;whiteSpace=wrap;fillColor=#76608a;shape=mxgraph.archimate3.application;appType=comp;archiType=square;strokeColor=#432D57;fontColor=#ffffff;" vertex="1" parent="1">
          <mxGeometry x="100" y="245" width="150" height="75" as="geometry" />
        </mxCell>
        <mxCell id="tVJEj3gGwOZP97PrgEpv-2" value="Система проверки паспортов по черным спискам" style="text;html=1;strokeColor=none;fillColor=none;align=center;verticalAlign=middle;whiteSpace=wrap;rounded=0;" vertex="1" parent="1">
          <mxGeometry x="110" y="120" width="300" height="30" as="geometry" />
        </mxCell>
        <mxCell id="tVJEj3gGwOZP97PrgEpv-3" value="Подсистема: Проверки списков" style="html=1;outlineConnect=0;whiteSpace=wrap;fillColor=#76608a;shape=mxgraph.archimate3.application;appType=comp;archiType=square;strokeColor=#432D57;fontColor=#ffffff;" vertex="1" parent="1">
          <mxGeometry x="264" y="195" width="150" height="75" as="geometry" />
        </mxCell>
        <mxCell id="tVJEj3gGwOZP97PrgEpv-4" value="" style="endArrow=none;html=1;rounded=0;exitX=1;exitY=0.5;exitDx=0;exitDy=0;exitPerimeter=0;entryX=0;entryY=0.5;entryDx=0;entryDy=0;entryPerimeter=0;endFill=0;startArrow=diamondThin;startFill=1;startSize=18;edgeStyle=elbowEdgeStyle;" edge="1" parent="1" source="tVJEj3gGwOZP97PrgEpv-3" target="fXtLzjUIHP5euoAiHCEg-6">
          <mxGeometry width="50" height="50" relative="1" as="geometry">
            <mxPoint x="520" y="610" as="sourcePoint" />
            <mxPoint x="570" y="560" as="targetPoint" />
          </mxGeometry>
        </mxCell>
        <mxCell id="tVJEj3gGwOZP97PrgEpv-5" value="passportCheck-a-kafka" style="html=1;outlineConnect=0;whiteSpace=wrap;fillColor=#647687;shape=mxgraph.archimate3.application;appType=interface;archiType=square;fontColor=#ffffff;strokeColor=#314354;" vertex="1" parent="1">
          <mxGeometry x="500" y="194.5" width="180" height="75" as="geometry" />
        </mxCell>
        <mxCell id="tVJEj3gGwOZP97PrgEpv-6" value="passportCheck-s-dbconnect" style="html=1;outlineConnect=0;whiteSpace=wrap;fillColor=#647687;shape=mxgraph.archimate3.application;appType=interface;archiType=square;fontColor=#ffffff;strokeColor=#314354;" vertex="1" parent="1">
          <mxGeometry x="500" y="300" width="180" height="75" as="geometry" />
        </mxCell>
        <mxCell id="tVJEj3gGwOZP97PrgEpv-7" value="" style="endArrow=none;html=1;rounded=0;exitX=1;exitY=0.5;exitDx=0;exitDy=0;exitPerimeter=0;entryX=0;entryY=0.5;entryDx=0;entryDy=0;entryPerimeter=0;endFill=0;startArrow=diamondThin;startFill=1;startSize=18;" edge="1" parent="1" source="tVJEj3gGwOZP97PrgEpv-3" target="tVJEj3gGwOZP97PrgEpv-5">
          <mxGeometry width="50" height="50" relative="1" as="geometry">
            <mxPoint x="430" y="274" as="sourcePoint" />
            <mxPoint x="520" y="168" as="targetPoint" />
          </mxGeometry>
        </mxCell>
        <mxCell id="tVJEj3gGwOZP97PrgEpv-8" value="" style="endArrow=none;html=1;rounded=0;exitX=1;exitY=0.5;exitDx=0;exitDy=0;exitPerimeter=0;entryX=0;entryY=0.5;entryDx=0;entryDy=0;entryPerimeter=0;endFill=0;startArrow=diamondThin;startFill=1;startSize=18;edgeStyle=orthogonalEdgeStyle;" edge="1" parent="1" source="tVJEj3gGwOZP97PrgEpv-3" target="tVJEj3gGwOZP97PrgEpv-6">
          <mxGeometry width="50" height="50" relative="1" as="geometry">
            <mxPoint x="424" y="243" as="sourcePoint" />
            <mxPoint x="520" y="258" as="targetPoint" />
          </mxGeometry>
        </mxCell>
        <mxCell id="tVJEj3gGwOZP97PrgEpv-9" value="" style="endArrow=classic;html=1;rounded=0;exitX=1;exitY=0.5;exitDx=0;exitDy=0;exitPerimeter=0;entryX=0.25;entryY=0;entryDx=0;entryDy=0;entryPerimeter=0;startArrow=oval;startFill=1;edgeStyle=orthogonalEdgeStyle;" edge="1" parent="1" source="fXtLzjUIHP5euoAiHCEg-6" target="fXtLzjUIHP5euoAiHCEg-8">
          <mxGeometry width="50" height="50" relative="1" as="geometry">
            <mxPoint x="810" y="130" as="sourcePoint" />
            <mxPoint x="860" y="80" as="targetPoint" />
          </mxGeometry>
        </mxCell>
        <mxCell id="tVJEj3gGwOZP97PrgEpv-10" value="" style="endArrow=classic;html=1;rounded=0;exitX=1;exitY=0.5;exitDx=0;exitDy=0;exitPerimeter=0;entryX=0.25;entryY=1;entryDx=0;entryDy=0;entryPerimeter=0;startArrow=oval;startFill=1;edgeStyle=orthogonalEdgeStyle;" edge="1" parent="1" source="tVJEj3gGwOZP97PrgEpv-6" target="fXtLzjUIHP5euoAiHCEg-8">
          <mxGeometry width="50" height="50" relative="1" as="geometry">
            <mxPoint x="690" y="138" as="sourcePoint" />
            <mxPoint x="848" y="205" as="targetPoint" />
          </mxGeometry>
        </mxCell>
        <mxCell id="tVJEj3gGwOZP97PrgEpv-11" value="" style="endArrow=classic;html=1;rounded=0;entryX=0;entryY=0.5;entryDx=0;entryDy=0;entryPerimeter=0;startArrow=oval;startFill=1;edgeStyle=orthogonalEdgeStyle;" edge="1" parent="1" source="tVJEj3gGwOZP97PrgEpv-5" target="fXtLzjUIHP5euoAiHCEg-8">
          <mxGeometry width="50" height="50" relative="1" as="geometry">
            <mxPoint x="690" y="138" as="sourcePoint" />
            <mxPoint x="848" y="205" as="targetPoint" />
          </mxGeometry>
        </mxCell>
      </root>
    </mxGraphModel>
  </diagram>
  <diagram id="tRtL_wF0zKMk4vI4FY4v" name="UlGroups">
    <mxGraphModel dx="891" dy="759" grid="1" gridSize="10" guides="1" tooltips="1" connect="1" arrows="1" fold="1" page="1" pageScale="1" pageWidth="827" pageHeight="1169" math="0" shadow="0">
      <root>
        <mxCell id="0" />
        <mxCell id="1" parent="0" />
        <mxCell id="JMsPln8WICBivLCUo9bw-1" value="" style="html=1;outlineConnect=0;whiteSpace=wrap;fillColor=#1ba1e2;shape=mxgraph.archimate3.application;appType=comp;archiType=square;fontColor=#ffffff;strokeColor=#006EAF;" vertex="1" parent="1">
          <mxGeometry x="90" y="84" width="350" height="300" as="geometry" />
        </mxCell>
        <mxCell id="JMsPln8WICBivLCUo9bw-2" value="Подсистема: ETL" style="html=1;outlineConnect=0;whiteSpace=wrap;fillColor=#76608a;shape=mxgraph.archimate3.application;appType=comp;archiType=square;strokeColor=#432D57;fontColor=#ffffff;" vertex="1" parent="1">
          <mxGeometry x="100" y="124" width="150" height="75" as="geometry" />
        </mxCell>
        <mxCell id="JMsPln8WICBivLCUo9bw-3" value="ulGroupsk-a-artemismq" style="html=1;outlineConnect=0;whiteSpace=wrap;fillColor=#647687;shape=mxgraph.archimate3.application;appType=interface;archiType=square;fontColor=#ffffff;strokeColor=#314354;" vertex="1" parent="1">
          <mxGeometry x="500" y="150" width="180" height="75" as="geometry" />
        </mxCell>
        <mxCell id="JMsPln8WICBivLCUo9bw-4" value="Сервис управления участниками ЮЛ" style="html=1;outlineConnect=0;whiteSpace=wrap;fillColor=#1ba1e2;shape=mxgraph.archimate3.application;appType=event;archiType=rounded;strokeColor=#006EAF;fontColor=#ffffff;" vertex="1" parent="1">
          <mxGeometry x="770" y="196.5" width="150" height="75" as="geometry" />
        </mxCell>
        <mxCell id="JMsPln8WICBivLCUo9bw-5" value="Подсистема: Графовая БД" style="html=1;outlineConnect=0;whiteSpace=wrap;fillColor=#76608a;shape=mxgraph.archimate3.application;appType=comp;archiType=square;strokeColor=#432D57;fontColor=#ffffff;" vertex="1" parent="1">
          <mxGeometry x="100" y="209" width="150" height="75" as="geometry" />
        </mxCell>
        <mxCell id="JMsPln8WICBivLCUo9bw-6" value="Система Связи ЮЛ" style="text;html=1;strokeColor=none;fillColor=none;align=center;verticalAlign=middle;whiteSpace=wrap;rounded=0;" vertex="1" parent="1">
          <mxGeometry x="110" y="84" width="300" height="30" as="geometry" />
        </mxCell>
        <mxCell id="JMsPln8WICBivLCUo9bw-7" value="Подсистема: Управление связями в ЮЛ" style="html=1;outlineConnect=0;whiteSpace=wrap;fillColor=#76608a;shape=mxgraph.archimate3.application;appType=comp;archiType=square;strokeColor=#432D57;fontColor=#ffffff;" vertex="1" parent="1">
          <mxGeometry x="264" y="209" width="150" height="75" as="geometry" />
        </mxCell>
        <mxCell id="JMsPln8WICBivLCUo9bw-8" value="" style="endArrow=none;html=1;rounded=0;exitX=1;exitY=0.5;exitDx=0;exitDy=0;exitPerimeter=0;entryX=0;entryY=0.5;entryDx=0;entryDy=0;entryPerimeter=0;endFill=0;startArrow=diamondThin;startFill=1;startSize=18;edgeStyle=elbowEdgeStyle;" edge="1" parent="1" source="JMsPln8WICBivLCUo9bw-7" target="JMsPln8WICBivLCUo9bw-3">
          <mxGeometry width="50" height="50" relative="1" as="geometry">
            <mxPoint x="520" y="610" as="sourcePoint" />
            <mxPoint x="570" y="560" as="targetPoint" />
            <Array as="points">
              <mxPoint x="460" y="220" />
            </Array>
          </mxGeometry>
        </mxCell>
        <mxCell id="JMsPln8WICBivLCUo9bw-9" value="ulGroups-a-kafka" style="html=1;outlineConnect=0;whiteSpace=wrap;fillColor=#647687;shape=mxgraph.archimate3.application;appType=interface;archiType=square;fontColor=#ffffff;strokeColor=#314354;" vertex="1" parent="1">
          <mxGeometry x="500" y="245" width="180" height="75" as="geometry" />
        </mxCell>
        <mxCell id="JMsPln8WICBivLCUo9bw-10" value="ulGroups-s-dbconnect" style="html=1;outlineConnect=0;whiteSpace=wrap;fillColor=#647687;shape=mxgraph.archimate3.application;appType=interface;archiType=square;fontColor=#ffffff;strokeColor=#314354;" vertex="1" parent="1">
          <mxGeometry x="500" y="340" width="180" height="75" as="geometry" />
        </mxCell>
        <mxCell id="JMsPln8WICBivLCUo9bw-11" value="" style="endArrow=none;html=1;rounded=0;exitX=1;exitY=0.5;exitDx=0;exitDy=0;exitPerimeter=0;entryX=0;entryY=0.5;entryDx=0;entryDy=0;entryPerimeter=0;endFill=0;startArrow=diamondThin;startFill=1;startSize=18;edgeStyle=orthogonalEdgeStyle;" edge="1" parent="1" source="JMsPln8WICBivLCUo9bw-7" target="JMsPln8WICBivLCUo9bw-9">
          <mxGeometry width="50" height="50" relative="1" as="geometry">
            <mxPoint x="430" y="274" as="sourcePoint" />
            <mxPoint x="520" y="168" as="targetPoint" />
            <Array as="points">
              <mxPoint x="460" y="247" />
              <mxPoint x="460" y="283" />
            </Array>
          </mxGeometry>
        </mxCell>
        <mxCell id="JMsPln8WICBivLCUo9bw-12" value="" style="endArrow=none;html=1;rounded=0;exitX=1;exitY=0.5;exitDx=0;exitDy=0;exitPerimeter=0;entryX=0;entryY=0.5;entryDx=0;entryDy=0;entryPerimeter=0;endFill=0;startArrow=diamondThin;startFill=1;startSize=18;edgeStyle=orthogonalEdgeStyle;" edge="1" parent="1" source="JMsPln8WICBivLCUo9bw-7" target="JMsPln8WICBivLCUo9bw-10">
          <mxGeometry width="50" height="50" relative="1" as="geometry">
            <mxPoint x="424" y="243" as="sourcePoint" />
            <mxPoint x="520" y="258" as="targetPoint" />
            <Array as="points">
              <mxPoint x="460" y="247" />
              <mxPoint x="460" y="378" />
            </Array>
          </mxGeometry>
        </mxCell>
        <mxCell id="JMsPln8WICBivLCUo9bw-13" value="" style="endArrow=classic;html=1;rounded=0;exitX=1;exitY=0.5;exitDx=0;exitDy=0;exitPerimeter=0;entryX=0;entryY=0.25;entryDx=0;entryDy=0;entryPerimeter=0;startArrow=oval;startFill=1;edgeStyle=orthogonalEdgeStyle;" edge="1" parent="1" source="JMsPln8WICBivLCUo9bw-3" target="JMsPln8WICBivLCUo9bw-4">
          <mxGeometry width="50" height="50" relative="1" as="geometry">
            <mxPoint x="810" y="130" as="sourcePoint" />
            <mxPoint x="860" y="80" as="targetPoint" />
          </mxGeometry>
        </mxCell>
        <mxCell id="JMsPln8WICBivLCUo9bw-14" value="" style="endArrow=classic;html=1;rounded=0;exitX=1;exitY=0.5;exitDx=0;exitDy=0;exitPerimeter=0;entryX=0.25;entryY=1;entryDx=0;entryDy=0;entryPerimeter=0;startArrow=oval;startFill=1;edgeStyle=orthogonalEdgeStyle;" edge="1" parent="1" source="JMsPln8WICBivLCUo9bw-10" target="JMsPln8WICBivLCUo9bw-4">
          <mxGeometry width="50" height="50" relative="1" as="geometry">
            <mxPoint x="690" y="138" as="sourcePoint" />
            <mxPoint x="848" y="205" as="targetPoint" />
          </mxGeometry>
        </mxCell>
        <mxCell id="JMsPln8WICBivLCUo9bw-15" value="" style="endArrow=classic;html=1;rounded=0;entryX=0;entryY=0.75;entryDx=0;entryDy=0;entryPerimeter=0;startArrow=oval;startFill=1;edgeStyle=orthogonalEdgeStyle;" edge="1" parent="1" source="JMsPln8WICBivLCUo9bw-9" target="JMsPln8WICBivLCUo9bw-4">
          <mxGeometry width="50" height="50" relative="1" as="geometry">
            <mxPoint x="690" y="138" as="sourcePoint" />
            <mxPoint x="848" y="205" as="targetPoint" />
          </mxGeometry>
        </mxCell>
        <mxCell id="JMsPln8WICBivLCUo9bw-16" value="Подсистема: ML вероятностные связи" style="html=1;outlineConnect=0;whiteSpace=wrap;fillColor=#76608a;shape=mxgraph.archimate3.application;appType=comp;archiType=square;strokeColor=#432D57;fontColor=#ffffff;" vertex="1" parent="1">
          <mxGeometry x="264" y="294" width="150" height="75" as="geometry" />
        </mxCell>
        <mxCell id="JMsPln8WICBivLCUo9bw-17" value="Подсистема: Параметризированный поиск по документам" style="html=1;outlineConnect=0;whiteSpace=wrap;fillColor=#76608a;shape=mxgraph.archimate3.application;appType=comp;archiType=square;strokeColor=#432D57;fontColor=#ffffff;" vertex="1" parent="1">
          <mxGeometry x="100" y="294" width="150" height="75" as="geometry" />
        </mxCell>
        <mxCell id="JMsPln8WICBivLCUo9bw-18" value="Подсистема: WebUI управления связями" style="html=1;outlineConnect=0;whiteSpace=wrap;fillColor=#76608a;shape=mxgraph.archimate3.application;appType=comp;archiType=square;strokeColor=#432D57;fontColor=#ffffff;" vertex="1" parent="1">
          <mxGeometry x="264" y="124" width="150" height="75" as="geometry" />
        </mxCell>
        <mxCell id="JMsPln8WICBivLCUo9bw-19" value="ulGroups-ui" style="html=1;outlineConnect=0;whiteSpace=wrap;fillColor=#647687;shape=mxgraph.archimate3.application;appType=interface;archiType=square;fontColor=#ffffff;strokeColor=#314354;" vertex="1" parent="1">
          <mxGeometry x="500" y="57" width="180" height="75" as="geometry" />
        </mxCell>
        <mxCell id="JMsPln8WICBivLCUo9bw-20" value="" style="endArrow=none;html=1;rounded=0;exitX=1;exitY=0.5;exitDx=0;exitDy=0;exitPerimeter=0;entryX=0;entryY=0.5;entryDx=0;entryDy=0;entryPerimeter=0;endFill=0;startArrow=diamondThin;startFill=1;startSize=18;edgeStyle=elbowEdgeStyle;" edge="1" parent="1" source="JMsPln8WICBivLCUo9bw-18" target="JMsPln8WICBivLCUo9bw-19">
          <mxGeometry width="50" height="50" relative="1" as="geometry">
            <mxPoint x="424" y="274" as="sourcePoint" />
            <mxPoint x="510" y="198" as="targetPoint" />
            <Array as="points">
              <mxPoint x="457" y="140" />
            </Array>
          </mxGeometry>
        </mxCell>
        <mxCell id="JMsPln8WICBivLCUo9bw-21" value="" style="endArrow=classic;html=1;rounded=0;exitX=1;exitY=0.5;exitDx=0;exitDy=0;exitPerimeter=0;entryX=0.25;entryY=0;entryDx=0;entryDy=0;entryPerimeter=0;startArrow=oval;startFill=1;edgeStyle=orthogonalEdgeStyle;" edge="1" parent="1" source="JMsPln8WICBivLCUo9bw-19" target="JMsPln8WICBivLCUo9bw-4">
          <mxGeometry width="50" height="50" relative="1" as="geometry">
            <mxPoint x="690" y="198" as="sourcePoint" />
            <mxPoint x="818" y="203" as="targetPoint" />
          </mxGeometry>
        </mxCell>
      </root>
    </mxGraphModel>
  </diagram>
  <diagram id="zDHnMDYTR1n3lQcFPBnJ" name="FlCard">
    <mxGraphModel dx="1173" dy="999" grid="1" gridSize="10" guides="1" tooltips="1" connect="1" arrows="1" fold="1" page="1" pageScale="1" pageWidth="827" pageHeight="1169" math="0" shadow="0">
      <root>
        <mxCell id="0" />
        <mxCell id="1" parent="0" />
        <mxCell id="NMYyUAojpedOCR3SdhzL-1" value="" style="html=1;outlineConnect=0;whiteSpace=wrap;fillColor=#1ba1e2;shape=mxgraph.archimate3.application;appType=comp;archiType=square;fontColor=#ffffff;strokeColor=#006EAF;" vertex="1" parent="1">
          <mxGeometry x="90" y="174.5" width="350" height="216" as="geometry" />
        </mxCell>
        <mxCell id="NMYyUAojpedOCR3SdhzL-2" value="Подсистема: ETL" style="html=1;outlineConnect=0;whiteSpace=wrap;fillColor=#76608a;shape=mxgraph.archimate3.application;appType=comp;archiType=square;strokeColor=#432D57;fontColor=#ffffff;" vertex="1" parent="1">
          <mxGeometry x="100" y="214.5" width="150" height="75" as="geometry" />
        </mxCell>
        <mxCell id="NMYyUAojpedOCR3SdhzL-3" value="flCard-a-artemismq" style="html=1;outlineConnect=0;whiteSpace=wrap;fillColor=#647687;shape=mxgraph.archimate3.application;appType=interface;archiType=square;fontColor=#ffffff;strokeColor=#314354;" vertex="1" parent="1">
          <mxGeometry x="500" y="150" width="180" height="75" as="geometry" />
        </mxCell>
        <mxCell id="NMYyUAojpedOCR3SdhzL-4" value="Сервис управления Карточкой ФЛ" style="html=1;outlineConnect=0;whiteSpace=wrap;fillColor=#1ba1e2;shape=mxgraph.archimate3.application;appType=event;archiType=rounded;strokeColor=#006EAF;fontColor=#ffffff;" vertex="1" parent="1">
          <mxGeometry x="770" y="244" width="150" height="75" as="geometry" />
        </mxCell>
        <mxCell id="NMYyUAojpedOCR3SdhzL-5" value="Подсистема: РСУБД" style="html=1;outlineConnect=0;whiteSpace=wrap;fillColor=#76608a;shape=mxgraph.archimate3.application;appType=comp;archiType=square;strokeColor=#432D57;fontColor=#ffffff;" vertex="1" parent="1">
          <mxGeometry x="100" y="299.5" width="150" height="75" as="geometry" />
        </mxCell>
        <mxCell id="NMYyUAojpedOCR3SdhzL-6" value="Система Карточка ФЛ" style="text;html=1;strokeColor=none;fillColor=none;align=center;verticalAlign=middle;whiteSpace=wrap;rounded=0;" vertex="1" parent="1">
          <mxGeometry x="110" y="174.5" width="300" height="30" as="geometry" />
        </mxCell>
        <mxCell id="NMYyUAojpedOCR3SdhzL-7" value="Подсистема: Управление Карточкой ФЛ" style="html=1;outlineConnect=0;whiteSpace=wrap;fillColor=#76608a;shape=mxgraph.archimate3.application;appType=comp;archiType=square;strokeColor=#432D57;fontColor=#ffffff;" vertex="1" parent="1">
          <mxGeometry x="264" y="299.5" width="150" height="75" as="geometry" />
        </mxCell>
        <mxCell id="NMYyUAojpedOCR3SdhzL-8" value="" style="endArrow=none;html=1;rounded=0;exitX=1;exitY=0.5;exitDx=0;exitDy=0;exitPerimeter=0;entryX=0;entryY=0.5;entryDx=0;entryDy=0;entryPerimeter=0;endFill=0;startArrow=diamondThin;startFill=1;startSize=18;edgeStyle=elbowEdgeStyle;" edge="1" parent="1" source="NMYyUAojpedOCR3SdhzL-7" target="NMYyUAojpedOCR3SdhzL-3">
          <mxGeometry width="50" height="50" relative="1" as="geometry">
            <mxPoint x="520" y="610" as="sourcePoint" />
            <mxPoint x="570" y="560" as="targetPoint" />
            <Array as="points">
              <mxPoint x="460" y="260" />
            </Array>
          </mxGeometry>
        </mxCell>
        <mxCell id="NMYyUAojpedOCR3SdhzL-9" value="flCard-a-kafka" style="html=1;outlineConnect=0;whiteSpace=wrap;fillColor=#647687;shape=mxgraph.archimate3.application;appType=interface;archiType=square;fontColor=#ffffff;strokeColor=#314354;" vertex="1" parent="1">
          <mxGeometry x="500" y="245" width="180" height="75" as="geometry" />
        </mxCell>
        <mxCell id="NMYyUAojpedOCR3SdhzL-10" value="flCard-s-dbconnect" style="html=1;outlineConnect=0;whiteSpace=wrap;fillColor=#647687;shape=mxgraph.archimate3.application;appType=interface;archiType=square;fontColor=#ffffff;strokeColor=#314354;" vertex="1" parent="1">
          <mxGeometry x="500" y="340" width="180" height="75" as="geometry" />
        </mxCell>
        <mxCell id="NMYyUAojpedOCR3SdhzL-11" value="" style="endArrow=none;html=1;rounded=0;entryX=0;entryY=0.5;entryDx=0;entryDy=0;entryPerimeter=0;endFill=0;startArrow=diamondThin;startFill=1;startSize=18;edgeStyle=orthogonalEdgeStyle;exitX=1;exitY=0.5;exitDx=0;exitDy=0;exitPerimeter=0;" edge="1" parent="1" source="NMYyUAojpedOCR3SdhzL-7" target="NMYyUAojpedOCR3SdhzL-9">
          <mxGeometry width="50" height="50" relative="1" as="geometry">
            <mxPoint x="490" y="300" as="sourcePoint" />
            <mxPoint x="520" y="168" as="targetPoint" />
            <Array as="points">
              <mxPoint x="460" y="337" />
              <mxPoint x="460" y="283" />
            </Array>
          </mxGeometry>
        </mxCell>
        <mxCell id="NMYyUAojpedOCR3SdhzL-12" value="" style="endArrow=none;html=1;rounded=0;entryX=0;entryY=0.5;entryDx=0;entryDy=0;entryPerimeter=0;endFill=0;startArrow=diamondThin;startFill=1;startSize=18;edgeStyle=orthogonalEdgeStyle;exitX=1;exitY=0.5;exitDx=0;exitDy=0;exitPerimeter=0;" edge="1" parent="1" source="NMYyUAojpedOCR3SdhzL-7" target="NMYyUAojpedOCR3SdhzL-10">
          <mxGeometry width="50" height="50" relative="1" as="geometry">
            <mxPoint x="424" y="243" as="sourcePoint" />
            <mxPoint x="520" y="258" as="targetPoint" />
            <Array as="points">
              <mxPoint x="460" y="337" />
              <mxPoint x="460" y="378" />
            </Array>
          </mxGeometry>
        </mxCell>
        <mxCell id="NMYyUAojpedOCR3SdhzL-13" value="" style="endArrow=classic;html=1;rounded=0;exitX=1;exitY=0.5;exitDx=0;exitDy=0;exitPerimeter=0;entryX=0;entryY=0.25;entryDx=0;entryDy=0;entryPerimeter=0;startArrow=oval;startFill=1;edgeStyle=orthogonalEdgeStyle;" edge="1" parent="1" source="NMYyUAojpedOCR3SdhzL-3" target="NMYyUAojpedOCR3SdhzL-4">
          <mxGeometry width="50" height="50" relative="1" as="geometry">
            <mxPoint x="810" y="130" as="sourcePoint" />
            <mxPoint x="860" y="80" as="targetPoint" />
          </mxGeometry>
        </mxCell>
        <mxCell id="NMYyUAojpedOCR3SdhzL-14" value="" style="endArrow=classic;html=1;rounded=0;exitX=1;exitY=0.5;exitDx=0;exitDy=0;exitPerimeter=0;startArrow=oval;startFill=1;edgeStyle=orthogonalEdgeStyle;entryX=0;entryY=0.75;entryDx=0;entryDy=0;entryPerimeter=0;" edge="1" parent="1" source="NMYyUAojpedOCR3SdhzL-10" target="NMYyUAojpedOCR3SdhzL-4">
          <mxGeometry width="50" height="50" relative="1" as="geometry">
            <mxPoint x="690" y="138" as="sourcePoint" />
            <mxPoint x="848" y="205" as="targetPoint" />
          </mxGeometry>
        </mxCell>
        <mxCell id="NMYyUAojpedOCR3SdhzL-15" value="" style="endArrow=classic;html=1;rounded=0;startArrow=oval;startFill=1;" edge="1" parent="1" source="NMYyUAojpedOCR3SdhzL-9" target="NMYyUAojpedOCR3SdhzL-4">
          <mxGeometry width="50" height="50" relative="1" as="geometry">
            <mxPoint x="690" y="138" as="sourcePoint" />
            <mxPoint x="848" y="205" as="targetPoint" />
          </mxGeometry>
        </mxCell>
        <mxCell id="NMYyUAojpedOCR3SdhzL-18" value="Подсистема: WebUI Карточки ФЛ" style="html=1;outlineConnect=0;whiteSpace=wrap;fillColor=#76608a;shape=mxgraph.archimate3.application;appType=comp;archiType=square;strokeColor=#432D57;fontColor=#ffffff;" vertex="1" parent="1">
          <mxGeometry x="264" y="214.5" width="150" height="75" as="geometry" />
        </mxCell>
        <mxCell id="NMYyUAojpedOCR3SdhzL-19" value="flCard-ui" style="html=1;outlineConnect=0;whiteSpace=wrap;fillColor=#647687;shape=mxgraph.archimate3.application;appType=interface;archiType=square;fontColor=#ffffff;strokeColor=#314354;" vertex="1" parent="1">
          <mxGeometry x="500" y="57" width="180" height="75" as="geometry" />
        </mxCell>
        <mxCell id="NMYyUAojpedOCR3SdhzL-20" value="" style="endArrow=none;html=1;rounded=0;exitX=1;exitY=0.5;exitDx=0;exitDy=0;exitPerimeter=0;entryX=0;entryY=0.5;entryDx=0;entryDy=0;entryPerimeter=0;endFill=0;startArrow=diamondThin;startFill=1;startSize=18;edgeStyle=elbowEdgeStyle;" edge="1" parent="1" source="NMYyUAojpedOCR3SdhzL-18" target="NMYyUAojpedOCR3SdhzL-19">
          <mxGeometry width="50" height="50" relative="1" as="geometry">
            <mxPoint x="424" y="274" as="sourcePoint" />
            <mxPoint x="510" y="198" as="targetPoint" />
            <Array as="points">
              <mxPoint x="450" y="170" />
            </Array>
          </mxGeometry>
        </mxCell>
        <mxCell id="NMYyUAojpedOCR3SdhzL-21" value="" style="endArrow=classic;html=1;rounded=0;exitX=1;exitY=0.5;exitDx=0;exitDy=0;exitPerimeter=0;entryX=0.25;entryY=0;entryDx=0;entryDy=0;entryPerimeter=0;startArrow=oval;startFill=1;edgeStyle=orthogonalEdgeStyle;" edge="1" parent="1" source="NMYyUAojpedOCR3SdhzL-19" target="NMYyUAojpedOCR3SdhzL-4">
          <mxGeometry width="50" height="50" relative="1" as="geometry">
            <mxPoint x="690" y="198" as="sourcePoint" />
            <mxPoint x="818" y="203" as="targetPoint" />
          </mxGeometry>
        </mxCell>
        <mxCell id="NMYyUAojpedOCR3SdhzL-22" value="flCard-s-rest" style="html=1;outlineConnect=0;whiteSpace=wrap;fillColor=#647687;shape=mxgraph.archimate3.application;appType=interface;archiType=square;fontColor=#ffffff;strokeColor=#314354;" vertex="1" parent="1">
          <mxGeometry x="500" y="436" width="180" height="75" as="geometry" />
        </mxCell>
        <mxCell id="NMYyUAojpedOCR3SdhzL-23" value="" style="endArrow=classic;html=1;rounded=0;exitX=1;exitY=0.5;exitDx=0;exitDy=0;exitPerimeter=0;entryX=0.25;entryY=1;entryDx=0;entryDy=0;entryPerimeter=0;startArrow=oval;startFill=1;edgeStyle=orthogonalEdgeStyle;" edge="1" parent="1" source="NMYyUAojpedOCR3SdhzL-22" target="NMYyUAojpedOCR3SdhzL-4">
          <mxGeometry width="50" height="50" relative="1" as="geometry">
            <mxPoint x="690" y="388" as="sourcePoint" />
            <mxPoint x="818" y="282" as="targetPoint" />
          </mxGeometry>
        </mxCell>
        <mxCell id="NMYyUAojpedOCR3SdhzL-24" value="" style="endArrow=none;html=1;rounded=0;entryX=0;entryY=0.5;entryDx=0;entryDy=0;entryPerimeter=0;endFill=0;startArrow=diamondThin;startFill=1;startSize=18;edgeStyle=orthogonalEdgeStyle;exitX=1;exitY=0.5;exitDx=0;exitDy=0;exitPerimeter=0;" edge="1" parent="1" source="NMYyUAojpedOCR3SdhzL-7" target="NMYyUAojpedOCR3SdhzL-22">
          <mxGeometry width="50" height="50" relative="1" as="geometry">
            <mxPoint x="424" y="366" as="sourcePoint" />
            <mxPoint x="510" y="388" as="targetPoint" />
            <Array as="points">
              <mxPoint x="460" y="337" />
              <mxPoint x="460" y="474" />
            </Array>
          </mxGeometry>
        </mxCell>
      </root>
    </mxGraphModel>
  </diagram>
  <diagram name="UlCard" id="s1HEj7TySzYPcxMMVo0u">
    <mxGraphModel dx="1114" dy="949" grid="1" gridSize="10" guides="1" tooltips="1" connect="1" arrows="1" fold="1" page="1" pageScale="1" pageWidth="827" pageHeight="1169" math="0" shadow="0">
      <root>
        <mxCell id="mcvnTXT9-OcM91cKVVYo-0" />
        <mxCell id="mcvnTXT9-OcM91cKVVYo-1" parent="mcvnTXT9-OcM91cKVVYo-0" />
        <mxCell id="mcvnTXT9-OcM91cKVVYo-2" value="" style="html=1;outlineConnect=0;whiteSpace=wrap;fillColor=#1ba1e2;shape=mxgraph.archimate3.application;appType=comp;archiType=square;fontColor=#ffffff;strokeColor=#006EAF;" vertex="1" parent="mcvnTXT9-OcM91cKVVYo-1">
          <mxGeometry x="90" y="174.5" width="350" height="216" as="geometry" />
        </mxCell>
        <mxCell id="mcvnTXT9-OcM91cKVVYo-3" value="Подсистема: ETL" style="html=1;outlineConnect=0;whiteSpace=wrap;fillColor=#76608a;shape=mxgraph.archimate3.application;appType=comp;archiType=square;strokeColor=#432D57;fontColor=#ffffff;" vertex="1" parent="mcvnTXT9-OcM91cKVVYo-1">
          <mxGeometry x="100" y="214.5" width="150" height="75" as="geometry" />
        </mxCell>
        <mxCell id="mcvnTXT9-OcM91cKVVYo-4" value="ulCard-a-artemismq" style="html=1;outlineConnect=0;whiteSpace=wrap;fillColor=#647687;shape=mxgraph.archimate3.application;appType=interface;archiType=square;fontColor=#ffffff;strokeColor=#314354;" vertex="1" parent="mcvnTXT9-OcM91cKVVYo-1">
          <mxGeometry x="500" y="150" width="180" height="75" as="geometry" />
        </mxCell>
        <mxCell id="mcvnTXT9-OcM91cKVVYo-5" value="Сервис управления Карточкой ЮЛ" style="html=1;outlineConnect=0;whiteSpace=wrap;fillColor=#1ba1e2;shape=mxgraph.archimate3.application;appType=event;archiType=rounded;strokeColor=#006EAF;fontColor=#ffffff;" vertex="1" parent="mcvnTXT9-OcM91cKVVYo-1">
          <mxGeometry x="770" y="244" width="150" height="75" as="geometry" />
        </mxCell>
        <mxCell id="mcvnTXT9-OcM91cKVVYo-6" value="Подсистема: РСУБД" style="html=1;outlineConnect=0;whiteSpace=wrap;fillColor=#76608a;shape=mxgraph.archimate3.application;appType=comp;archiType=square;strokeColor=#432D57;fontColor=#ffffff;" vertex="1" parent="mcvnTXT9-OcM91cKVVYo-1">
          <mxGeometry x="100" y="299.5" width="150" height="75" as="geometry" />
        </mxCell>
        <mxCell id="mcvnTXT9-OcM91cKVVYo-7" value="Система Карточка ЮЛ" style="text;html=1;strokeColor=none;fillColor=none;align=center;verticalAlign=middle;whiteSpace=wrap;rounded=0;" vertex="1" parent="mcvnTXT9-OcM91cKVVYo-1">
          <mxGeometry x="110" y="174.5" width="300" height="30" as="geometry" />
        </mxCell>
        <mxCell id="mcvnTXT9-OcM91cKVVYo-8" value="Подсистема: Управление Карточкой ЮЛ" style="html=1;outlineConnect=0;whiteSpace=wrap;fillColor=#76608a;shape=mxgraph.archimate3.application;appType=comp;archiType=square;strokeColor=#432D57;fontColor=#ffffff;" vertex="1" parent="mcvnTXT9-OcM91cKVVYo-1">
          <mxGeometry x="264" y="299.5" width="150" height="75" as="geometry" />
        </mxCell>
        <mxCell id="mcvnTXT9-OcM91cKVVYo-9" value="" style="endArrow=none;html=1;rounded=0;exitX=1;exitY=0.5;exitDx=0;exitDy=0;exitPerimeter=0;entryX=0;entryY=0.5;entryDx=0;entryDy=0;entryPerimeter=0;endFill=0;startArrow=diamondThin;startFill=1;startSize=18;edgeStyle=elbowEdgeStyle;" edge="1" parent="mcvnTXT9-OcM91cKVVYo-1" source="mcvnTXT9-OcM91cKVVYo-8" target="mcvnTXT9-OcM91cKVVYo-4">
          <mxGeometry width="50" height="50" relative="1" as="geometry">
            <mxPoint x="520" y="610" as="sourcePoint" />
            <mxPoint x="570" y="560" as="targetPoint" />
            <Array as="points">
              <mxPoint x="460" y="260" />
            </Array>
          </mxGeometry>
        </mxCell>
        <mxCell id="mcvnTXT9-OcM91cKVVYo-10" value="ulCard-a-kafka" style="html=1;outlineConnect=0;whiteSpace=wrap;fillColor=#647687;shape=mxgraph.archimate3.application;appType=interface;archiType=square;fontColor=#ffffff;strokeColor=#314354;" vertex="1" parent="mcvnTXT9-OcM91cKVVYo-1">
          <mxGeometry x="500" y="245" width="180" height="75" as="geometry" />
        </mxCell>
        <mxCell id="mcvnTXT9-OcM91cKVVYo-11" value="ulCard-s-dbconnect" style="html=1;outlineConnect=0;whiteSpace=wrap;fillColor=#647687;shape=mxgraph.archimate3.application;appType=interface;archiType=square;fontColor=#ffffff;strokeColor=#314354;" vertex="1" parent="mcvnTXT9-OcM91cKVVYo-1">
          <mxGeometry x="500" y="340" width="180" height="75" as="geometry" />
        </mxCell>
        <mxCell id="mcvnTXT9-OcM91cKVVYo-12" value="" style="endArrow=none;html=1;rounded=0;entryX=0;entryY=0.5;entryDx=0;entryDy=0;entryPerimeter=0;endFill=0;startArrow=diamondThin;startFill=1;startSize=18;edgeStyle=orthogonalEdgeStyle;exitX=1;exitY=0.5;exitDx=0;exitDy=0;exitPerimeter=0;" edge="1" parent="mcvnTXT9-OcM91cKVVYo-1" source="mcvnTXT9-OcM91cKVVYo-8" target="mcvnTXT9-OcM91cKVVYo-10">
          <mxGeometry width="50" height="50" relative="1" as="geometry">
            <mxPoint x="490" y="300" as="sourcePoint" />
            <mxPoint x="520" y="168" as="targetPoint" />
            <Array as="points">
              <mxPoint x="460" y="337" />
              <mxPoint x="460" y="283" />
            </Array>
          </mxGeometry>
        </mxCell>
        <mxCell id="mcvnTXT9-OcM91cKVVYo-13" value="" style="endArrow=none;html=1;rounded=0;entryX=0;entryY=0.5;entryDx=0;entryDy=0;entryPerimeter=0;endFill=0;startArrow=diamondThin;startFill=1;startSize=18;edgeStyle=orthogonalEdgeStyle;exitX=1;exitY=0.5;exitDx=0;exitDy=0;exitPerimeter=0;" edge="1" parent="mcvnTXT9-OcM91cKVVYo-1" source="mcvnTXT9-OcM91cKVVYo-8" target="mcvnTXT9-OcM91cKVVYo-11">
          <mxGeometry width="50" height="50" relative="1" as="geometry">
            <mxPoint x="424" y="243" as="sourcePoint" />
            <mxPoint x="520" y="258" as="targetPoint" />
            <Array as="points">
              <mxPoint x="460" y="337" />
              <mxPoint x="460" y="378" />
            </Array>
          </mxGeometry>
        </mxCell>
        <mxCell id="mcvnTXT9-OcM91cKVVYo-14" value="" style="endArrow=classic;html=1;rounded=0;exitX=1;exitY=0.5;exitDx=0;exitDy=0;exitPerimeter=0;entryX=0;entryY=0.25;entryDx=0;entryDy=0;entryPerimeter=0;startArrow=oval;startFill=1;edgeStyle=orthogonalEdgeStyle;" edge="1" parent="mcvnTXT9-OcM91cKVVYo-1" source="mcvnTXT9-OcM91cKVVYo-4" target="mcvnTXT9-OcM91cKVVYo-5">
          <mxGeometry width="50" height="50" relative="1" as="geometry">
            <mxPoint x="810" y="130" as="sourcePoint" />
            <mxPoint x="860" y="80" as="targetPoint" />
          </mxGeometry>
        </mxCell>
        <mxCell id="mcvnTXT9-OcM91cKVVYo-15" value="" style="endArrow=classic;html=1;rounded=0;exitX=1;exitY=0.5;exitDx=0;exitDy=0;exitPerimeter=0;startArrow=oval;startFill=1;edgeStyle=orthogonalEdgeStyle;entryX=0;entryY=0.75;entryDx=0;entryDy=0;entryPerimeter=0;" edge="1" parent="mcvnTXT9-OcM91cKVVYo-1" source="mcvnTXT9-OcM91cKVVYo-11" target="mcvnTXT9-OcM91cKVVYo-5">
          <mxGeometry width="50" height="50" relative="1" as="geometry">
            <mxPoint x="690" y="138" as="sourcePoint" />
            <mxPoint x="848" y="205" as="targetPoint" />
          </mxGeometry>
        </mxCell>
        <mxCell id="mcvnTXT9-OcM91cKVVYo-16" value="" style="endArrow=classic;html=1;rounded=0;startArrow=oval;startFill=1;" edge="1" parent="mcvnTXT9-OcM91cKVVYo-1" source="mcvnTXT9-OcM91cKVVYo-10" target="mcvnTXT9-OcM91cKVVYo-5">
          <mxGeometry width="50" height="50" relative="1" as="geometry">
            <mxPoint x="690" y="138" as="sourcePoint" />
            <mxPoint x="848" y="205" as="targetPoint" />
          </mxGeometry>
        </mxCell>
        <mxCell id="mcvnTXT9-OcM91cKVVYo-17" value="Подсистема: WebUI Карточки ЮЛ" style="html=1;outlineConnect=0;whiteSpace=wrap;fillColor=#76608a;shape=mxgraph.archimate3.application;appType=comp;archiType=square;strokeColor=#432D57;fontColor=#ffffff;" vertex="1" parent="mcvnTXT9-OcM91cKVVYo-1">
          <mxGeometry x="264" y="214.5" width="150" height="75" as="geometry" />
        </mxCell>
        <mxCell id="mcvnTXT9-OcM91cKVVYo-18" value="ulCard-ui" style="html=1;outlineConnect=0;whiteSpace=wrap;fillColor=#647687;shape=mxgraph.archimate3.application;appType=interface;archiType=square;fontColor=#ffffff;strokeColor=#314354;" vertex="1" parent="mcvnTXT9-OcM91cKVVYo-1">
          <mxGeometry x="500" y="57" width="180" height="75" as="geometry" />
        </mxCell>
        <mxCell id="mcvnTXT9-OcM91cKVVYo-19" value="" style="endArrow=none;html=1;rounded=0;exitX=1;exitY=0.5;exitDx=0;exitDy=0;exitPerimeter=0;entryX=0;entryY=0.5;entryDx=0;entryDy=0;entryPerimeter=0;endFill=0;startArrow=diamondThin;startFill=1;startSize=18;edgeStyle=elbowEdgeStyle;" edge="1" parent="mcvnTXT9-OcM91cKVVYo-1" source="mcvnTXT9-OcM91cKVVYo-17" target="mcvnTXT9-OcM91cKVVYo-18">
          <mxGeometry width="50" height="50" relative="1" as="geometry">
            <mxPoint x="424" y="274" as="sourcePoint" />
            <mxPoint x="510" y="198" as="targetPoint" />
            <Array as="points">
              <mxPoint x="450" y="170" />
            </Array>
          </mxGeometry>
        </mxCell>
        <mxCell id="mcvnTXT9-OcM91cKVVYo-20" value="" style="endArrow=classic;html=1;rounded=0;exitX=1;exitY=0.5;exitDx=0;exitDy=0;exitPerimeter=0;entryX=0.25;entryY=0;entryDx=0;entryDy=0;entryPerimeter=0;startArrow=oval;startFill=1;edgeStyle=orthogonalEdgeStyle;" edge="1" parent="mcvnTXT9-OcM91cKVVYo-1" source="mcvnTXT9-OcM91cKVVYo-18" target="mcvnTXT9-OcM91cKVVYo-5">
          <mxGeometry width="50" height="50" relative="1" as="geometry">
            <mxPoint x="690" y="198" as="sourcePoint" />
            <mxPoint x="818" y="203" as="targetPoint" />
          </mxGeometry>
        </mxCell>
        <mxCell id="mcvnTXT9-OcM91cKVVYo-21" value="ulCard-s-rest" style="html=1;outlineConnect=0;whiteSpace=wrap;fillColor=#647687;shape=mxgraph.archimate3.application;appType=interface;archiType=square;fontColor=#ffffff;strokeColor=#314354;" vertex="1" parent="mcvnTXT9-OcM91cKVVYo-1">
          <mxGeometry x="500" y="436" width="180" height="75" as="geometry" />
        </mxCell>
        <mxCell id="mcvnTXT9-OcM91cKVVYo-22" value="" style="endArrow=classic;html=1;rounded=0;exitX=1;exitY=0.5;exitDx=0;exitDy=0;exitPerimeter=0;entryX=0.25;entryY=1;entryDx=0;entryDy=0;entryPerimeter=0;startArrow=oval;startFill=1;edgeStyle=orthogonalEdgeStyle;" edge="1" parent="mcvnTXT9-OcM91cKVVYo-1" source="mcvnTXT9-OcM91cKVVYo-21" target="mcvnTXT9-OcM91cKVVYo-5">
          <mxGeometry width="50" height="50" relative="1" as="geometry">
            <mxPoint x="690" y="388" as="sourcePoint" />
            <mxPoint x="818" y="282" as="targetPoint" />
          </mxGeometry>
        </mxCell>
        <mxCell id="mcvnTXT9-OcM91cKVVYo-23" value="" style="endArrow=none;html=1;rounded=0;entryX=0;entryY=0.5;entryDx=0;entryDy=0;entryPerimeter=0;endFill=0;startArrow=diamondThin;startFill=1;startSize=18;edgeStyle=orthogonalEdgeStyle;exitX=1;exitY=0.5;exitDx=0;exitDy=0;exitPerimeter=0;" edge="1" parent="mcvnTXT9-OcM91cKVVYo-1" source="mcvnTXT9-OcM91cKVVYo-8" target="mcvnTXT9-OcM91cKVVYo-21">
          <mxGeometry width="50" height="50" relative="1" as="geometry">
            <mxPoint x="424" y="366" as="sourcePoint" />
            <mxPoint x="510" y="388" as="targetPoint" />
            <Array as="points">
              <mxPoint x="460" y="337" />
              <mxPoint x="460" y="474" />
            </Array>
          </mxGeometry>
        </mxCell>
      </root>
    </mxGraphModel>
  </diagram>
</mxfile>
